<svg xmlns="http://www.w3.org/2000/svg" viewBox="0 0 120 120" fill="none">
  <!-- Purple Circle Background -->
  <circle cx="60" cy="60" r="55" fill="#7C3AED" />
  
  <!-- Just a Pillar (Centered, Larger) -->
  <g transform="translate(35, 25) scale(0.8)" fill="white">
      <!-- Capital -->
      <path d="M10 10 L50 10 L50 15 C50 18 48 20 45 20 L15 20 C12 20 10 18 10 15 Z" />
      <circle cx="8" cy="13" r="3" />
      <circle cx="52" cy="13" r="3" />

      <!-- Shaft -->
      <rect x="15" y="22" width="6" height="60" rx="1" opacity="0.9" />
      <rect x="23" y="22" width="6" height="50" rx="1" opacity="0.9" />
      <rect x="31" y="22" width="6" height="50" rx="1" opacity="0.9" />
      <rect x="39" y="22" width="6" height="60" rx="1" opacity="0.9" />
      
      <!-- Base -->
      <rect x="10" y="85" width="40" height="8" rx="2" />
      <rect x="5" y="93" width="50" height="8" rx="2" />
  </g>
</svg>
